<?xml version="1.0" encoding="UTF-8" standalone="no"?> <svg width="512" height="512" viewBox="0 0 512 512" fill="none" xmlns="http://www.w3.org/2000/svg">
<path d="M485.22 148.1C484.41 153.05 483.42 158.16 482.25 163.4C480.49 171.35 478.31 179.59 475.72 188.03V188.04C474.51 192.02 473.2 196.06 471.8 200.12C469.79 205.96 467.59 211.88 465.21 217.83C464.27 220.18 463.31 222.52 462.33 224.82C460.48 229.21 458.57 233.5 456.61 237.69C429.14 296.53 392.33 335.15 370.13 326.27C345.52 316.43 348.18 251.91 376.07 182.17C403.97 112.43 446.53 63.8802 471.15 73.7302C487.07 80.1002 491.58 109.35 485.22 148.1Z" fill="#D3A168"/>
<path d="M485.22 148.101C484.41 153.051 483.42 158.161 482.25 163.401C482.01 163.421 481.78 163.431 481.54 163.431C479.72 163.431 477.88 162.811 476.38 161.541C460.05 147.731 445.22 148.541 445.07 148.551C440.67 148.921 436.8 145.641 436.44 141.241C436.07 136.841 439.34 132.971 443.74 132.611C444.59 132.531 464.18 131.121 485.22 148.101Z" fill="#5D3C20"/>
<path d="M475.72 188.03V188.04C474.51 192.02 473.2 196.06 471.8 200.12C470.94 200.42 470.05 200.57 469.14 200.57C467.31 200.57 465.47 199.95 463.97 198.68C447.64 184.86 432.81 185.68 432.66 185.69C428.26 186.06 424.39 182.78 424.03 178.38C423.66 173.98 426.93 170.11 431.34 169.74C432.2 169.67 452.71 168.19 474.31 186.47C474.86 186.94 475.33 187.46 475.72 188.03Z" fill="#5D3C20"/>
<path d="M462.33 224.821C460.48 229.211 458.57 233.501 456.61 237.691C456.41 237.701 456.2 237.711 456 237.711C454.17 237.711 452.34 237.091 450.83 235.821C444 230.041 436.66 226.101 429 224.111C423.27 222.611 419.48 222.831 419.45 222.831C415.05 223.201 411.22 219.931 410.85 215.521C410.48 211.121 413.79 207.251 418.2 206.881C419.06 206.811 439.57 205.331 461.17 223.601C461.61 223.971 462 224.381 462.33 224.821Z" fill="#5D3C20"/>
<path d="M264 296H184V64C184 41.909 201.909 24 224 24C246.091 24 264 41.909 264 64V296Z" fill="#AE9256"/>
<path d="M148.556 140.167L59.0302 174.822C42.5492 181.202 34.3602 199.735 40.7402 216.216C46.1232 230.121 60.1562 238.124 74.3092 236.454L103.552 312L208 271.569L178.757 196.023C190.346 187.728 195.333 172.362 189.951 158.457C183.57 141.976 165.038 133.787 148.556 140.167Z" fill="#FCD47C"/>
<path d="M118.952 271.146C117.032 271.146 115.106 270.459 113.573 269.065C110.303 266.093 110.063 261.033 113.035 257.764L149.135 218.055C152.107 214.786 157.167 214.545 160.436 217.517C163.706 220.489 163.946 225.549 160.974 228.818L124.874 268.527C123.295 270.263 121.127 271.146 118.952 271.146Z" fill="#9E854E"/>
<path d="M104.513 233.844C102.593 233.844 100.667 233.157 99.1341 231.763C95.8651 228.791 95.6241 223.731 98.5961 220.462L134.695 180.753C137.667 177.483 142.727 177.243 145.996 180.215C149.265 183.187 149.506 188.247 146.534 191.516L110.435 231.225C108.856 232.961 106.688 233.844 104.513 233.844Z" fill="#9E854E"/>
<path d="M240 96H208C203.582 96 200 92.418 200 88C200 83.582 203.582 80 208 80H240C244.418 80 248 83.582 248 88C248 92.418 244.418 96 240 96Z" fill="#5D3C20"/>
<path d="M240 136H208C203.582 136 200 132.418 200 128C200 123.582 203.582 120 208 120H240C244.418 120 248 123.582 248 128C248 132.418 244.418 136 240 136Z" fill="#5D3C20"/>
<path d="M240 176H208C203.582 176 200 172.418 200 168C200 163.582 203.582 160 208 160H240C244.418 160 248 163.582 248 168C248 172.418 244.418 176 240 176Z" fill="#5D3C20"/>
<path d="M240 216H208C203.582 216 200 212.418 200 208C200 203.582 203.582 200 208 200H240C244.418 200 248 203.582 248 208C248 212.418 244.418 216 240 216Z" fill="#5D3C20"/>
<path d="M320 304C364.183 304 400 275.346 400 240C400 204.654 364.183 176 320 176C275.817 176 240 204.654 240 240C240 275.346 275.817 304 320 304Z" fill="#D88A49"/>
<path d="M280.02 232C275.602 232 272.015 228.418 272.015 224C272.015 219.582 275.592 216 280.01 216H280.02C284.438 216 288.02 219.582 288.02 224C288.02 228.418 284.438 232 280.02 232Z" fill="#462D18"/>
<path d="M304.412 215.608C299.994 215.608 296.407 212.026 296.407 207.608C296.407 203.19 299.984 199.608 304.402 199.608H304.412C308.83 199.608 312.412 203.19 312.412 207.608C312.412 212.026 308.831 215.608 304.412 215.608Z" fill="#462D18"/>
<path d="M320.02 240C315.602 240 312.015 236.418 312.015 232C312.015 227.582 315.592 224 320.01 224H320.02C324.438 224 328.02 227.582 328.02 232C328.02 236.418 324.438 240 320.02 240Z" fill="#462D18"/>
<path d="M336.02 208C331.602 208 328.015 204.418 328.015 200C328.015 195.582 331.592 192 336.01 192H336.02C340.438 192 344.02 195.582 344.02 200C344.02 204.418 340.438 208 336.02 208Z" fill="#462D18"/>
<path d="M360.02 232C355.602 232 352.015 228.418 352.015 224C352.015 219.582 355.592 216 360.01 216H360.02C364.438 216 368.02 219.582 368.02 224C368.02 228.418 364.438 232 360.02 232Z" fill="#462D18"/>
<path d="M373.985 488H138.015C108.88 488 83.741 467.559 77.799 439.036L48 296H464L434.201 439.036C428.259 467.559 403.12 488 373.985 488Z" fill="#AE6F3B"/>
<path d="M472 296H40C31.163 296 24 288.837 24 280C24 271.163 31.163 264 40 264H472C480.837 264 488 271.163 488 280C488 288.837 480.837 296 472 296Z" fill="#5D3C20"/>
<path d="M416 352H96C91.582 352 88 348.418 88 344C88 339.582 91.582 336 96 336H416C420.418 336 424 339.582 424 344C424 348.418 420.418 352 416 352Z" fill="#5D3C20"/>
<path d="M400 392H112C107.582 392 104 388.418 104 384C104 379.582 107.582 376 112 376H400C404.418 376 408 379.582 408 384C408 388.418 404.418 392 400 392Z" fill="#5D3C20"/>
<path d="M384 432H128C123.582 432 120 428.418 120 424C120 419.582 123.582 416 128 416H384C388.418 416 392 419.582 392 424C392 428.418 388.418 432 384 432Z" fill="#5D3C20"/>
<path d="M256 464C251.582 464 248 460.418 248 456V328C248 323.582 251.582 320 256 320C260.418 320 264 323.582 264 328V456C264 460.418 260.418 464 256 464Z" fill="#5D3C20"/>
<path d="M208 464C203.582 464 200 460.418 200 456V328C200 323.582 203.582 320 208 320C212.418 320 216 323.582 216 328V456C216 460.418 212.418 464 208 464Z" fill="#5D3C20"/>
<path d="M160 464C155.582 464 152 460.418 152 456V328C152 323.582 155.582 320 160 320C164.418 320 168 323.582 168 328V456C168 460.418 164.418 464 160 464Z" fill="#5D3C20"/>
<path d="M304 464C299.582 464 296 460.418 296 456V328C296 323.582 299.582 320 304 320C308.418 320 312 323.582 312 328V456C312 460.418 308.418 464 304 464Z" fill="#5D3C20"/>
<path d="M352 464C347.582 464 344 460.418 344 456V328C344 323.582 347.582 320 352 320C356.418 320 360 323.582 360 328V456C360 460.418 356.418 464 352 464Z" fill="#5D3C20"/>
</svg>
