<?xml version="1.0" encoding="UTF-8" standalone="no"?> <svg xmlns="http://www.w3.org/2000/svg" viewBox="0 0 64 64"><title>broom-halloween-household-witch-clean</title><g id="_19-broom" data-name="19-broom"><path d="M29.022,22.039h0a6.6,6.6,0,0,0-3.282,5.867l-.018.732.118.118.019-.019a30.94,30.94,0,0,1,9.193,9.192l-.02.019.118.118.732-.018a6.6,6.6,0,0,0,5.868-3.282h0A22.158,22.158,0,0,0,29.022,22.039Z" style="fill:#877363;fill-rule:evenodd"/><path d="M22.548,32.048l3.32-3.32h0a21.907,21.907,0,0,1,9.192,9.192h0L31.8,41.178Z" style="fill:#e5772e;fill-rule:evenodd"/><path d="M25.6,62.476h0A34.669,34.669,0,0,1,21.318,61c-.692-.29,2.716-7.52,2.047-7.853-.625-.311-5.328,6.278-5.93,5.931A34.613,34.613,0,0,1,1.312,38.193h0c7.953-7.953,20.3-9.425,27-2.719S33.549,54.523,25.6,62.476Z" style="fill:#877363;fill-rule:evenodd"/><path d="M61.894,1.894C60.723.723,58.369,1.177,56.636,2.91L34.453,25.093A22.112,22.112,0,0,1,38.7,29.336L60.879,7.152C62.611,5.42,63.066,3.066,61.894,1.894Z" style="fill:#f9be58;fill-rule:evenodd"/><path d="M62.6,1.188C61.016-.4,58.086.047,55.929,2.2L34.362,23.769A23.106,23.106,0,0,0,29.381,21.1a1,1,0,0,0-.845.06,7.62,7.62,0,0,0-3.8,6.718l-.013.571L22.3,30.88a18.768,18.768,0,0,0-7.12-.54A24.465,24.465,0,0,0,.6,37.49a.987.987,0,0,0-.25.97A35.4,35.4,0,0,0,16.94,59.95c1.02.59,1.83-.36,4.22-3.18.12-.15.26-.3.39-.46-.05.15-.1.29-.15.43-1.2,3.3-1.69,4.67-.47,5.19a38.055,38.055,0,0,0,4.4,1.51,1.259,1.259,0,0,0,.27.04.994.994,0,0,0,.7-.3c6.16-6.16,8.49-14.76,6.58-21.67l2.456-2.448.571-.013a7.618,7.618,0,0,0,6.717-3.8,1,1,0,0,0,.059-.845,23.082,23.082,0,0,0-2.664-4.981L61.586,7.859A6.659,6.659,0,0,0,63.458,4.5,3.62,3.62,0,0,0,62.6,1.188ZM25.29,61.35c-1.01-.29-2.01-.64-2.99-1.02.18-.72.65-2,.98-2.91,1.21-3.35,1.66-4.6.53-5.16-1.01-.51-1.81.43-4.17,3.21-.69.81-1.66,1.95-2.19,2.46A33.33,33.33,0,0,1,2.44,38.49a22.68,22.68,0,0,1,12.95-6.16,16.845,16.845,0,0,1,6.56.53,12.9,12.9,0,0,1,8.89,8.77C32.75,47.76,30.77,55.6,25.29,61.35Zm6.86-21.93a14.716,14.716,0,0,0-3.13-4.65,15.087,15.087,0,0,0-4.63-3.15l1.592-1.592A29.817,29.817,0,0,1,33.757,37.8Zm3.708-2.371-.142,0a22.806,22.806,0,0,0-8.98-8.98l0-.142a5.681,5.681,0,0,1,2.378-4.779,21.52,21.52,0,0,1,11.519,11.52A5.676,5.676,0,0,1,35.858,37.049ZM61.494,4.123a4.7,4.7,0,0,1-1.322,2.322L38.79,27.828A23.26,23.26,0,0,0,35.961,25L57.343,3.616c1.432-1.431,3.175-1.682,3.844-1.014A1.723,1.723,0,0,1,61.494,4.123Z"/><rect x="54" y="50" width="2" height="2"/><rect x="54" y="56" width="2" height="2"/><rect x="57" y="53" width="2" height="2"/><rect x="51" y="53" width="2" height="2"/><rect x="14" y="18" width="2" height="2"/><rect x="14" y="24" width="2" height="2"/><rect x="17" y="21" width="2" height="2"/><rect x="11" y="21" width="2" height="2"/><rect x="37" y="1" width="2" height="2"/><rect x="37" y="7" width="2" height="2"/><rect x="40" y="4" width="2" height="2"/><rect x="34" y="4" width="2" height="2"/></g></svg>