<?xml version="1.0" encoding="UTF-8" standalone="no"?> <svg width="64" height="64" viewBox="0 0 64 64" fill="none" xmlns="http://www.w3.org/2000/svg">
<path d="M58 9H53V6C52.9984 4.6744 52.4711 3.40356 51.5338 2.46622C50.5964 1.52888 49.3256 1.00159 48 1H16C14.6744 1.00159 13.4036 1.52888 12.4662 2.46622C11.5289 3.40356 11.0016 4.6744 11 6V9H6C4.6744 9.00159 3.40356 9.52888 2.46622 10.4662C1.52888 11.4036 1.00159 12.6744 1 14V48C1.00159 49.3256 1.52888 50.5964 2.46622 51.5338C3.40356 52.4711 4.6744 52.9984 6 53H24.82L24.138 57.087C22.9811 57.2895 21.9323 57.8928 21.1757 58.7911C20.4191 59.6895 20.0029 60.8255 20 62C20 62.2652 20.1054 62.5196 20.2929 62.7071C20.4804 62.8946 20.7348 63 21 63H43C43.2652 63 43.5196 62.8946 43.7071 62.7071C43.8946 62.5196 44 62.2652 44 62C43.9971 60.8255 43.5809 59.6895 42.8243 58.7911C42.0677 57.8928 41.0189 57.2895 39.862 57.087L39.18 53H58C59.3256 52.9984 60.5964 52.4711 61.5338 51.5338C62.4711 50.5964 62.9984 49.3256 63 48V14C62.9984 12.6744 62.4711 11.4036 61.5338 10.4662C60.5964 9.52888 59.3256 9.00159 58 9V9ZM58 11C58.7956 11 59.5587 11.3161 60.1213 11.8787C60.6839 12.4413 61 13.2044 61 14V45H59V14C59 13.7348 58.8946 13.4804 58.7071 13.2929C58.5196 13.1054 58.2652 13 58 13H53V11H58ZM57 45H53V15H57V45ZM16 3H48C48.7956 3 49.5587 3.31607 50.1213 3.87868C50.6839 4.44129 51 5.20435 51 6V45H13V6C13 5.20435 13.3161 4.44129 13.8787 3.87868C14.4413 3.31607 15.2044 3 16 3V3ZM11 45H7V15H11V45ZM6 11H11V13H6C5.73478 13 5.48043 13.1054 5.29289 13.2929C5.10536 13.4804 5 13.7348 5 14V45H3V14C3 13.2044 3.31607 12.4413 3.87868 11.8787C4.44129 11.3161 5.20435 11 6 11V11ZM41.829 61H22.171C22.3786 60.4155 22.7619 59.9095 23.2684 59.5514C23.7749 59.1934 24.3797 59.0008 25 59H39C39.6203 59.0008 40.2251 59.1934 40.7316 59.5514C41.2381 59.9095 41.6214 60.4155 41.829 61ZM37.82 57H26.18L26.847 53H37.153L37.82 57ZM58 51H6C5.20435 51 4.44129 50.6839 3.87868 50.1213C3.31607 49.5587 3 48.7956 3 48V47H61V48C61 48.7956 60.6839 49.5587 60.1213 50.1213C59.5587 50.6839 58.7956 51 58 51Z" fill="black"/>
<path d="M20 8.41379L21.293 9.70679C21.4805 9.89426 21.7348 9.99957 22 9.99957C22.2652 9.99957 22.5195 9.89426 22.707 9.70679L24 8.41379V12.9998H26V5.99979C26 5.80204 25.9413 5.60874 25.8314 5.44433C25.7215 5.27992 25.5654 5.15178 25.3827 5.07611C25.2 5.00044 24.9989 4.98064 24.805 5.0192C24.611 5.05777 24.4329 5.15298 24.293 5.29279L22 7.58579L19.707 5.29279C19.5671 5.15298 19.389 5.05777 19.195 5.0192C19.0011 4.98064 18.8 5.00044 18.6173 5.07611C18.4346 5.15178 18.2785 5.27992 18.1686 5.44433C18.0587 5.60874 18 5.80204 18 5.99979V12.9998H20V8.41379Z" fill="black"/>
<path d="M28 13H32V11H29V10H31V8H29V7H32V5H28C27.7348 5 27.4804 5.10536 27.2929 5.29289C27.1054 5.48043 27 5.73478 27 6V12C27 12.2652 27.1054 12.5196 27.2929 12.7071C27.4804 12.8946 27.7348 13 28 13Z" fill="black"/>
<path d="M35 9.30022L37.168 12.5522C37.2869 12.7306 37.46 12.866 37.6618 12.9385C37.8635 13.011 38.0832 13.0168 38.2885 12.9549C38.4938 12.8931 38.6737 12.7669 38.8018 12.595C38.9299 12.4231 38.9994 12.2146 39 12.0002V5.00022H37V8.70022L34.832 5.44522C34.7129 5.26665 34.5396 5.13112 34.3375 5.05868C34.1355 4.98624 33.9155 4.98072 33.7101 5.04295C33.5046 5.10518 33.3247 5.23186 33.1968 5.40424C33.069 5.57663 33 5.78559 33 6.00022V13.0002H35V9.30022Z" fill="black"/>
<path d="M43 13C43.7956 13 44.5587 12.6839 45.1213 12.1213C45.6839 11.5587 46 10.7956 46 10V5H44V10C44 10.2652 43.8946 10.5196 43.7071 10.7071C43.5196 10.8946 43.2652 11 43 11C42.7348 11 42.4804 10.8946 42.2929 10.7071C42.1054 10.5196 42 10.2652 42 10V5H40V10C40 10.7956 40.3161 11.5587 40.8787 12.1213C41.4413 12.6839 42.2044 13 43 13Z" fill="black"/>
<path d="M49 15H15V17H49V15Z" fill="black"/>
<path d="M29 26H28C27.9974 24.5834 27.4941 23.2134 26.5792 22.132C25.6643 21.0505 24.3965 20.3273 23 20.09V19H21V20.09C19.6035 20.3273 18.3357 21.0505 17.4208 22.132C16.5059 23.2134 16.0026 24.5834 16 26H15V28H29V26ZM22 22C23.0609 22 24.0783 22.4214 24.8284 23.1716C25.5786 23.9217 26 24.9391 26 26H18C18 24.9391 18.4214 23.9217 19.1716 23.1716C19.9217 22.4214 20.9391 22 22 22V22Z" fill="black"/>
<path d="M33 21H31V23H33V21Z" fill="black"/>
<path d="M49 21H35V23H49V21Z" fill="black"/>
<path d="M33 25H31V27H33V25Z" fill="black"/>
<path d="M49 25H35V27H49V25Z" fill="black"/>
<path d="M22.781 32H25V30H22C21.7771 30 21.5605 30.0745 21.3848 30.2117C21.209 30.3488 21.0842 30.5408 21.03 30.757L20.219 34H16V36H17.133L18.01 42.142C18.0442 42.3802 18.1631 42.5981 18.3449 42.7557C18.5268 42.9133 18.7594 43 19 43H23C23.2406 43 23.4732 42.9133 23.6551 42.7557C23.8369 42.5981 23.9558 42.3802 23.99 42.142L24.867 36H26V34H22.281L22.781 32ZM22.133 41H19.867L19.153 36H22.847L22.133 41Z" fill="black"/>
<path d="M33 35H31V37H33V35Z" fill="black"/>
<path d="M49 35H35V37H49V35Z" fill="black"/>
<path d="M33 39H31V41H33V39Z" fill="black"/>
<path d="M49 39H35V41H49V39Z" fill="black"/>
</svg>
