<?xml version="1.0" encoding="UTF-8" standalone="no"?> <svg width="64" height="64" viewBox="0 0 64 64" fill="none" xmlns="http://www.w3.org/2000/svg">
<path d="M52.33 42.53L49.33 39.53C49.1427 39.3438 48.8892 39.2393 48.625 39.2393C48.3608 39.2393 48.1074 39.3438 47.92 39.53L34.25 53.16C34.0638 53.3474 33.9592 53.6009 33.9592 53.8651C33.9592 54.1292 34.0638 54.3827 34.25 54.57L40.39 60.71C40.5763 60.8948 40.8277 60.9989 41.09 61H41.21C41.3583 60.9827 41.5009 60.9324 41.6272 60.8528C41.7535 60.7732 41.8604 60.6664 41.94 60.5401L52.47 43.7701C52.5907 43.5781 52.6426 43.3508 52.6172 43.1255C52.5917 42.9002 52.4905 42.6902 52.33 42.53V42.53Z" fill="#40596B"/>
<path d="M29.82 20C29.6598 19.8395 29.4498 19.7383 29.2245 19.7129C28.9992 19.6874 28.7719 19.7393 28.58 19.86L11.82 30.41C11.686 30.4886 11.5723 30.5973 11.4876 30.7274C11.403 30.8576 11.3499 31.0057 11.3324 31.16C11.3149 31.3143 11.3336 31.4705 11.387 31.6163C11.4404 31.7621 11.527 31.8935 11.64 32L17.78 38.14C17.9673 38.3263 18.2208 38.4308 18.485 38.4308C18.7491 38.4308 19.0026 38.3263 19.19 38.14L32.84 24.45C33.0262 24.2626 33.1308 24.0092 33.1308 23.745C33.1308 23.4808 33.0262 23.2274 32.84 23.04L29.82 20Z" fill="#40596B"/>
<path d="M22.78 40.2699C22.687 40.1762 22.5764 40.1018 22.4546 40.051C22.3327 40.0003 22.202 39.9741 22.07 39.9741C21.938 39.9741 21.8073 40.0003 21.6854 40.051C21.5636 40.1018 21.453 40.1762 21.36 40.2699L15.51 46.1099C15.3273 46.3016 15.2237 46.5552 15.22 46.8199C15.2192 46.9515 15.2445 47.082 15.2942 47.2038C15.344 47.3257 15.4173 47.4365 15.51 47.5299L24.82 56.8399C24.9134 56.9326 25.0242 57.0059 25.1461 57.0557C25.2679 57.1055 25.3984 57.1307 25.53 57.1299C25.7923 57.1288 26.0437 57.0247 26.23 56.8399L32.08 50.9999C32.1737 50.907 32.2481 50.7964 32.2989 50.6745C32.3496 50.5526 32.3758 50.4219 32.3758 50.2899C32.3758 50.1579 32.3496 50.0272 32.2989 49.9053C32.2481 49.7835 32.1737 49.6729 32.08 49.5799L22.78 40.2699Z" fill="#40596B"/>
<path d="M16.37 52.06C16.277 51.9662 16.1664 51.8918 16.0446 51.8411C15.9227 51.7903 15.792 51.7642 15.66 51.7642C15.528 51.7642 15.3973 51.7903 15.2754 51.8411C15.1536 51.8918 15.043 51.9662 14.95 52.06L12.23 54.78C12.1368 54.8725 12.0627 54.9826 12.012 55.1038C11.9613 55.225 11.9349 55.355 11.9345 55.4864C11.934 55.6178 11.9594 55.748 12.0093 55.8696C12.0591 55.9912 12.1324 56.1017 12.225 56.195C12.3176 56.2882 12.4276 56.3623 12.5488 56.413C12.6701 56.4637 12.8001 56.49 12.9315 56.4905C13.0629 56.491 13.1931 56.4656 13.3146 56.4157C13.4362 56.3658 13.5468 56.2925 13.64 56.2L16.37 53.48C16.4637 53.387 16.5381 53.2764 16.5889 53.1545C16.6397 53.0327 16.6658 52.902 16.6658 52.77C16.6658 52.6379 16.6397 52.5072 16.5889 52.3854C16.5381 52.2635 16.4637 52.1529 16.37 52.06Z" fill="#40596B"/>
<path d="M20.29 55.9999C20.1971 55.9062 20.0865 55.8318 19.9646 55.781C19.8428 55.7302 19.7121 55.7041 19.58 55.7041C19.448 55.7041 19.3173 55.7302 19.1955 55.781C19.0736 55.8318 18.963 55.9062 18.87 55.9999L16.15 58.7299C15.9638 58.9173 15.8593 59.1707 15.8593 59.4349C15.8593 59.6991 15.9638 59.9525 16.15 60.1399C16.2435 60.2326 16.3543 60.3059 16.4761 60.3557C16.598 60.4054 16.7284 60.4307 16.86 60.4299C17.1224 60.4288 17.3738 60.3246 17.56 60.1399L20.29 57.4199C20.3838 57.3269 20.4582 57.2163 20.5089 57.0945C20.5597 56.9726 20.5858 56.8419 20.5858 56.7099C20.5858 56.5779 20.5597 56.4472 20.5089 56.3253C20.4582 56.2035 20.3838 56.0929 20.29 55.9999Z" fill="#40596B"/>
<path d="M60.8601 12.4001C60.8397 12.1655 60.7373 11.9457 60.5709 11.7792C60.4044 11.6128 60.1846 11.5104 59.9501 11.4901C55.0931 11.0334 50.1951 11.6543 45.6058 13.3086C41.0164 14.9628 36.8487 17.6096 33.4001 21.0601L17.7801 36.6801C17.6863 36.773 17.6119 36.8836 17.5612 37.0055C17.5104 37.1273 17.4843 37.258 17.4843 37.3901C17.4843 37.5221 17.5104 37.6528 17.5612 37.7746C17.6119 37.8965 17.6863 38.0071 17.7801 38.1001L34.2501 54.5701C34.3435 54.6627 34.4543 54.7361 34.5761 54.7858C34.698 54.8356 34.8284 54.8608 34.9601 54.8601C35.0917 54.8608 35.2221 54.8356 35.344 54.7858C35.4658 54.7361 35.5766 54.6627 35.67 54.5701L51.2901 39.0001C54.7491 35.5471 57.401 31.3713 59.0556 26.7724C60.7102 22.1734 61.3264 17.2653 60.8601 12.4001V12.4001Z" fill="#ACB3BA"/>
<path d="M49.9 22.4499C49.1765 21.7281 48.2552 21.2369 47.2527 21.0384C46.2501 20.8399 45.2112 20.943 44.2672 21.3346C43.3232 21.7263 42.5165 22.389 41.949 23.2389C41.3814 24.0888 41.0785 25.0879 41.0785 26.1099C41.0785 27.132 41.3814 28.131 41.949 28.981C42.5165 29.8309 43.3232 30.4936 44.2672 30.8852C45.2112 31.2769 46.2501 31.38 47.2527 31.1815C48.2552 30.983 49.1765 30.4918 49.9 29.7699C50.8697 28.7987 51.4143 27.4824 51.4143 26.1099C51.4143 24.7375 50.8697 23.4212 49.9 22.4499V22.4499Z" fill="#97CCEF"/>
<path d="M50 40.2201L51.29 39.0001C54.749 35.5471 57.4009 31.3713 59.0555 26.7724C60.7101 22.1734 61.3263 17.2653 60.86 12.4001C60.8397 12.1655 60.7373 11.9457 60.5708 11.7792C60.4043 11.6128 60.1845 11.5104 59.95 11.4901C55.093 11.0334 50.1951 11.6543 45.6057 13.3086C41.0163 14.9628 36.8486 17.6096 33.4 21.0601L32.13 22.3301L29.82 20.0001C29.6598 19.8396 29.4498 19.7383 29.2245 19.7129C28.9992 19.6875 28.7719 19.7394 28.58 19.8601L11.82 30.4101C11.686 30.4886 11.5723 30.5973 11.4876 30.7275C11.403 30.8577 11.3499 31.0058 11.3324 31.16C11.3149 31.3143 11.3336 31.4706 11.387 31.6164C11.4404 31.7622 11.527 31.8935 11.64 32.0001L20.64 41.0001L15.5 46.1401C15.3172 46.3317 15.2136 46.5853 15.21 46.8501C15.2092 46.9817 15.2344 47.1121 15.2842 47.234C15.334 47.3558 15.4073 47.4666 15.5 47.5601L24.81 56.8701C24.9034 56.9627 25.0142 57.0361 25.1361 57.0858C25.2579 57.1356 25.3884 57.1608 25.52 57.1601C25.7823 57.159 26.0337 57.0548 26.22 56.8701L31.37 51.7201L40.37 60.7201C40.5562 60.9048 40.8076 61.009 41.07 61.0101H41.19C41.3383 60.9927 41.4808 60.9424 41.6071 60.8628C41.7334 60.7832 41.8403 60.6764 41.92 60.5501L52.47 43.7701C52.5907 43.5781 52.6425 43.3508 52.6171 43.1255C52.5917 42.9002 52.4904 42.6903 52.33 42.5301L50 40.2201ZM29 22.0001L30.75 23.7501L18.49 36.0001L13.94 31.4501L29 22.0001ZM34.84 22.4801C37.978 19.332 41.7551 16.894 45.9162 15.3311C50.0773 13.7681 54.5254 13.1164 58.96 13.4201C59.2623 17.8545 58.61 22.3022 57.0471 26.4631C55.4842 30.624 53.047 34.4013 49.9 37.5401L35 52.4501L19.9 37.3901L34.84 22.4801ZM25.53 54.7101L17.63 46.8201L22.07 42.3901L30 50.2801L25.53 54.7101ZM40.91 58.4101L36.37 53.8601L48.6 41.6301L50.35 43.3801L40.91 58.4101Z" fill="black"/>
<path d="M46.24 31.2799C47.436 31.278 48.5944 30.8614 49.5177 30.1012C50.441 29.341 51.0722 28.2842 51.3037 27.1108C51.5353 25.9374 51.3528 24.7201 50.7875 23.6661C50.2222 22.6122 49.3089 21.7868 48.2033 21.3307C47.0977 20.8746 45.8681 20.8159 44.7241 21.1646C43.5801 21.5133 42.5923 22.2479 41.9291 23.2432C41.266 24.2385 40.9684 25.4329 41.0871 26.623C41.2057 27.8131 41.7334 28.9252 42.58 29.7699C43.5526 30.7371 44.8684 31.28 46.24 31.2799ZM44 23.8599C44.2945 23.5645 44.6444 23.3302 45.0297 23.1702C45.4149 23.0103 45.8279 22.928 46.245 22.928C46.6622 22.928 47.0752 23.0103 47.4604 23.1702C47.8457 23.3302 48.1956 23.5645 48.49 23.8599C48.9324 24.3037 49.2333 24.8685 49.3548 25.4832C49.4764 26.0978 49.413 26.7347 49.1728 27.3134C48.9326 27.892 48.5263 28.3865 48.0052 28.7344C47.4841 29.0823 46.8716 29.268 46.245 29.268C45.6185 29.268 45.006 29.0823 44.4849 28.7344C43.9638 28.3865 43.5575 27.892 43.3173 27.3134C43.0771 26.7347 43.0137 26.0978 43.1352 25.4832C43.2568 24.8685 43.5577 24.3037 44 23.8599V23.8599Z" fill="black"/>
<path d="M16.37 52.06C16.277 51.9662 16.1664 51.8918 16.0446 51.8411C15.9227 51.7903 15.792 51.7642 15.66 51.7642C15.528 51.7642 15.3973 51.7903 15.2754 51.8411C15.1536 51.8918 15.043 51.9662 14.95 52.06L12.23 54.78C12.1368 54.8725 12.0627 54.9826 12.012 55.1038C11.9613 55.225 11.9349 55.355 11.9345 55.4864C11.934 55.6178 11.9594 55.748 12.0093 55.8696C12.0591 55.9912 12.1324 56.1017 12.225 56.195C12.3176 56.2882 12.4276 56.3623 12.5488 56.413C12.6701 56.4637 12.8001 56.49 12.9315 56.4905C13.0629 56.491 13.1931 56.4656 13.3146 56.4157C13.4362 56.3658 13.5468 56.2925 13.64 56.2L16.37 53.48C16.4637 53.387 16.5381 53.2764 16.5889 53.1545C16.6397 53.0327 16.6658 52.902 16.6658 52.77C16.6658 52.6379 16.6397 52.5072 16.5889 52.3854C16.5381 52.2635 16.4637 52.1529 16.37 52.06Z" fill="black"/>
<path d="M18.87 55.9999L16.15 58.7299C15.9638 58.9173 15.8593 59.1707 15.8593 59.4349C15.8593 59.6991 15.9638 59.9525 16.15 60.1399C16.2435 60.2326 16.3543 60.3059 16.4761 60.3557C16.598 60.4054 16.7284 60.4307 16.86 60.4299C17.1224 60.4288 17.3738 60.3246 17.56 60.1399L20.29 57.4199C20.4784 57.2316 20.5841 56.9762 20.5841 56.7099C20.5841 56.4436 20.4784 56.1882 20.29 55.9999C20.1968 55.9067 20.0861 55.8327 19.9643 55.7822C19.8425 55.7318 19.7119 55.7058 19.58 55.7058C19.3137 55.7058 19.0584 55.8116 18.87 55.9999Z" fill="black"/>
<path d="M18.92 5C19.1852 5 19.4396 4.89464 19.6271 4.70711C19.8146 4.51957 19.92 4.26522 19.92 4C19.92 3.73478 19.8146 3.48043 19.6271 3.29289C19.4396 3.10536 19.1852 3 18.92 3C14.7081 2.99997 10.6679 4.66901 7.68402 7.64163C4.70016 10.6142 3.01587 14.6482 3 18.86C3 19.1252 3.10536 19.3796 3.29289 19.5671C3.48043 19.7546 3.73478 19.86 4 19.86C4.26522 19.86 4.51957 19.7546 4.70711 19.5671C4.89464 19.3796 5 19.1252 5 18.86C5.01587 15.1786 6.48944 11.6534 9.09823 9.05584C11.707 6.45829 15.2386 4.99997 18.92 5V5Z" fill="black"/>
<path d="M18.92 9.17994C19.1853 9.17994 19.4396 9.07458 19.6272 8.88704C19.8147 8.69951 19.92 8.44515 19.92 8.17994C19.92 7.91472 19.8147 7.66037 19.6272 7.47283C19.4396 7.28529 19.1853 7.17994 18.92 7.17994C15.8168 7.17724 12.8386 8.40335 10.6368 10.5902C8.43497 12.777 7.18855 15.7467 7.17004 18.8499C7.17004 19.1152 7.2754 19.3695 7.46294 19.557C7.65047 19.7446 7.90483 19.8499 8.17004 19.8499C8.43526 19.8499 8.68961 19.7446 8.87715 19.557C9.06469 19.3695 9.17004 19.1152 9.17004 18.8499C9.18853 16.2771 10.2242 13.8162 12.051 12.0044C13.8778 10.1926 16.3472 9.17723 18.92 9.17994V9.17994Z" fill="black"/>
<path d="M12.3401 19.8601C12.6053 19.8601 12.8596 19.7547 13.0472 19.5672C13.2347 19.3797 13.34 19.1253 13.34 18.8601C13.3559 17.3915 13.9511 15.9886 14.9961 14.9567C16.0411 13.9248 17.4514 13.3474 18.9201 13.3501C19.1853 13.3501 19.4396 13.2447 19.6272 13.0572C19.8147 12.8697 19.92 12.6153 19.92 12.3501C19.92 12.0849 19.8147 11.8305 19.6272 11.643C19.4396 11.4555 19.1853 11.3501 18.9201 11.3501C16.9271 11.3527 15.0158 12.1421 13.6019 13.5466C12.188 14.9512 11.3859 16.8572 11.37 18.8501C11.3673 19.1119 11.4674 19.3644 11.6488 19.5532C11.8301 19.7421 12.0783 19.8523 12.3401 19.8601Z" fill="black"/>
<path d="M15.52 18.89C15.52 19.5565 15.7177 20.2081 16.088 20.7623C16.4583 21.3165 16.9846 21.7484 17.6004 22.0035C18.2162 22.2586 18.8938 22.3253 19.5475 22.1953C20.2012 22.0652 20.8017 21.7443 21.273 21.273C21.7443 20.8017 22.0652 20.2012 22.1953 19.5475C22.3253 18.8938 22.2586 18.2162 22.0035 17.6004C21.7484 16.9846 21.3165 16.4583 20.7623 16.088C20.2081 15.7177 19.5565 15.52 18.89 15.52C18.4475 15.52 18.0092 15.6072 17.6004 15.7765C17.1915 15.9459 16.82 16.1941 16.5071 16.5071C16.1941 16.82 15.9459 17.1915 15.7765 17.6004C15.6072 18.0092 15.52 18.4475 15.52 18.89V18.89ZM20.26 18.89C20.26 19.161 20.1797 19.4259 20.0291 19.6511C19.8786 19.8764 19.6646 20.052 19.4143 20.1557C19.164 20.2594 18.8885 20.2866 18.6227 20.2337C18.357 20.1808 18.1129 20.0504 17.9213 19.8588C17.7297 19.6672 17.5992 19.423 17.5463 19.1573C17.4935 18.8915 17.5206 18.6161 17.6243 18.3657C17.728 18.1154 17.9036 17.9014 18.1289 17.7509C18.3542 17.6004 18.6191 17.52 18.89 17.52C19.0699 17.52 19.2481 17.5555 19.4143 17.6243C19.5805 17.6932 19.7315 17.7941 19.8588 17.9213C19.986 18.0485 20.0869 18.1995 20.1557 18.3657C20.2246 18.532 20.26 18.7101 20.26 18.89V18.89Z" fill="black"/>
</svg>
