<?xml version="1.0" encoding="utf-8"?>
<!-- Generator: Adobe Illustrator 23.0.3, SVG Export Plug-In . SVG Version: 6.00 Build 0)  -->
<svg version="1.1" id="Layer_1" xmlns="http://www.w3.org/2000/svg" xmlns:xlink="http://www.w3.org/1999/xlink" x="0px" y="0px"
	 viewBox="0 0 512 512" style="enable-background:new 0 0 512 512;" xml:space="preserve">
<style type="text/css">
	.st0{fill:#07342D;}
</style>
<title>code-glyph</title>
<path class="st0" d="M307.3,0H115.2c-35.3,0-64,28.7-64,64v384c0,35.3,28.7,64,64,64h281.6c35.3,0,64-28.7,64-64V153.6L307.3,0z
	 M208.8,305.8c0,7.1-1.2,8.5-6,11l-30.9,15.1v0.8l30.7,15c5.2,2.5,6.2,3.8,6.2,11v11.5c0,6.1-1.8,7.8-7,5.1l-55.5-30
	c-4.2-2.5-5.5-3.8-5.5-8.3v-8.3c0-4.5,1.3-6,5.5-8.5l55.5-29.9c5.2-2.6,7-1,7,5.1L208.8,305.8z M291.5,274.4l-43.8,116.7
	c-1.5,4.5-3.5,5.6-8.2,5.6h-13.4c-4.5,0-5.4-1.7-4-5.6L266,274.4c1.5-4.5,3.5-5.6,8.2-5.6h13.4C292,268.8,293,270.5,291.5,274.4z
	 M371.2,336.7c0,4.1-1.3,6-5.5,8.5l-55.5,29.9c-4.9,2.6-7.2,1-7.2-5v-10.8c0-6.8,1.3-8.5,6.2-11l30.9-15.1v-0.8l-30.7-15
	c-5.2-2.5-6.4-3.8-6.4-11v-11.2c0-6.1,2.3-7.8,7.2-5.1l55.5,30c4.2,2.5,5.5,4.1,5.5,8.3V336.7z M358.4,166.4c-35.3,0-64-28.7-64-64
	V25.6l140.8,140.8H358.4z"/>
</svg>
