<?xml version="1.0" encoding="UTF-8" standalone="no"?> <svg width="512" height="512" viewBox="0 0 512 512" fill="none" xmlns="http://www.w3.org/2000/svg">
<path d="M304 448H290C271.2 448 256 432.8 256 414V352H304V448Z" fill="#BBBAB6"/>
<path d="M360 160H136V320H360V160Z" fill="#EAE9E4"/>
<path d="M112 304C81.1 304 56 278.9 56 248C56 217.1 81.1 192 112 192V304Z" fill="#A6DEFF"/>
<path d="M152 320H88V256L152 272V320Z" fill="#BBBAB6"/>
<path d="M152 272H117.5C99.7 272 83.6 261.1 77 244.6C73.7 236.4 68 229.4 60.7 224.5L57.3 222.2C36.5 208.3 24 185 24 160H152V272Z" fill="#DCDBD6"/>
<path d="M360 304V176C395.3 176 424 204.7 424 240C424 275.3 395.3 304 360 304Z" fill="#BBBAB6"/>
<path d="M280 384C257.9 384 240 366.1 240 344V320H320V344C320 366.1 302.1 384 280 384Z" fill="#DCDBD6"/>
<path d="M424 400H304V448H424V400Z" fill="#DCDBD6"/>
<path d="M488 376H424V472H488V376Z" fill="#BBBAB6"/>
<path d="M256 264C260.418 264 264 260.418 264 256C264 251.582 260.418 248 256 248C251.582 248 248 251.582 248 256C248 260.418 251.582 264 256 264Z" fill="black"/>
<path d="M226 262C229.314 262 232 259.314 232 256C232 252.686 229.314 250 226 250C222.686 250 220 252.686 220 256C220 259.314 222.686 262 226 262Z" fill="black"/>
<path d="M286 262C289.314 262 292 259.314 292 256C292 252.686 289.314 250 286 250C282.686 250 280 252.686 280 256C280 259.314 282.686 262 286 262Z" fill="black"/>
<path d="M280.5 62.9C284.8 64 289.1 61.4 290.2 57.1C291.3 52.8 288.7 48.5 284.4 47.4C276 45.2 267.2 44.1 258.4 44.1C227 44.1 197.5 58.1 177.7 82.5C174.9 85.9 175.4 91 178.9 93.8C180.4 95 182.2 95.6 183.9 95.6C186.2 95.6 188.5 94.6 190.1 92.6C207 72 231.9 60.2 258.5 60.2C266 60.2 273.4 61.1 280.5 62.9Z" fill="black"/>
<path d="M326.8 92.7C328.4 94.6 330.7 95.7 333 95.7C334.8 95.7 336.6 95.1 338 93.9C341.4 91.1 341.9 86.1 339.2 82.6C331.2 72.7 321.5 64.5 310.5 58.1C306.7 55.9 301.8 57.2 299.6 61C297.4 64.8 298.7 69.7 302.5 71.9C311.8 77.3 320 84.3 326.8 92.7Z" fill="black"/>
<path d="M203.8 114C205.3 115.2 207.1 115.8 208.8 115.8C211.1 115.8 213.4 114.8 215 112.8C222.5 103.5 233 96.8 244.5 93.9C248.8 92.8 251.4 88.4 250.3 84.2C249.2 79.9 244.8 77.3 240.6 78.4C225.8 82.2 212.4 90.8 202.7 102.7C199.8 106.2 200.4 111.2 203.8 114Z" fill="black"/>
<path d="M302 112.9C303.6 114.8 305.9 115.9 308.2 115.9C310 115.9 311.8 115.3 313.2 114.1C316.6 111.3 317.1 106.3 314.4 102.8C302.6 88.3 286 79.1 267.5 76.8C263.1 76.3 259.1 79.4 258.6 83.7C258.1 88.1 261.2 92.1 265.5 92.6C279.8 94.4 292.8 101.6 302 112.9Z" fill="black"/>
<path d="M228.6 134.2C230.1 135.4 231.9 136 233.6 136C235.9 136 238.2 135 239.8 133C244.4 127.4 251.2 124.1 258.4 124.1C262.8 124.1 266.4 120.5 266.4 116.1C266.4 111.7 262.8 108.1 258.4 108.1C246.3 108.1 235 113.5 227.4 122.9C224.7 126.4 225.2 131.4 228.6 134.2Z" fill="black"/>
<path d="M285 118.2C281.7 115.3 276.6 115.6 273.7 118.9C270.8 122.2 271.1 127.3 274.4 130.2C275.4 131.1 276.3 132 277.2 133.1C278.8 135 281.1 136.1 283.4 136.1C285.2 136.1 287 135.5 288.4 134.3C291.8 131.5 292.3 126.5 289.6 123C288.2 121.2 286.6 119.6 285 118.2Z" fill="black"/>
<path d="M488 368H424C419.6 368 416 371.6 416 376V392H312V379.7C321.8 370.9 328 358.1 328 344V328H360C364.4 328 368 324.4 368 320V311.5C403.9 307.5 432 277 432 240C432 203 403.9 172.4 368 168.5V160C368 155.6 364.4 152 360 152H152H24C19.6 152 16 155.6 16 160C16 187.1 29.1 212.3 51.3 227.8C49.1 234.2 48 241 48 248C48 270.9 60.4 292.1 80 303.4V320C80 324.4 83.6 328 88 328H152H232V344C232 358.2 238.2 370.9 248 379.7V414C248 437.2 266.8 456 290 456H304H416V472C416 476.4 419.6 480 424 480H488C492.4 480 496 476.4 496 472V376C496 371.6 492.4 368 488 368ZM416 240C416 268.2 395.1 291.5 368 295.4V184.6C395.1 188.5 416 211.8 416 240ZM32.5 168H144V264H117.5C108.5 264 100.1 260.7 93.7 254.9C93.5 254.7 93.3 254.5 93 254.3C89.3 250.8 86.4 246.5 84.4 241.6C80.7 232.4 74.5 224.5 66.4 218.7C65.9 218.2 65.3 217.8 64.7 217.5L61.7 215.5C45.4 204.6 34.8 187.2 32.5 168ZM64 248C64 245 64.3 242.1 64.8 239.2C66.7 241.7 68.4 244.6 69.6 247.6C72.1 253.8 75.6 259.3 80 263.9V283.8C70 274.8 64 261.8 64 248ZM96 275.3C102.6 278.3 109.9 280 117.5 280H144V312H96V275.3ZM160 272V168H352V176V304V312H320H240H160V272ZM312 328V344C312 361.6 297.6 376 280 376C262.4 376 248 361.6 248 344V328H312ZM264 414V389.2C269 391 274.4 392 280 392C285.6 392 291 391 296 389.2V400V440H290C275.7 440 264 428.3 264 414ZM312 440V408H416V440H312ZM480 464H432V448V400V384H480V464Z" fill="black"/>
</svg>
