<?xml version="1.0" encoding="UTF-8" standalone="no"?> <svg width="512" height="512" viewBox="0 0 512 512" fill="none" xmlns="http://www.w3.org/2000/svg">
<path d="M32 128C32 74.9807 74.9807 32 128 32H384C437.019 32 480 74.9807 480 128V384C480 437.019 437.019 480 384 480H128C74.9807 480 32 437.019 32 384V128Z" fill="#597DDC"/>
<path fill-rule="evenodd" clip-rule="evenodd" d="M128 32C74.9807 32 32 74.9807 32 128V368C32 412.183 67.8172 448 112 448H368C412.183 448 448 412.183 448 368V112C448 67.8172 412.183 32 368 32H128Z" fill="#6EBAFF"/>
<path d="M288 376C288 393.673 273.673 408 256 408C238.327 408 224 393.673 224 376C224 358.327 238.327 344 256 344C273.673 344 288 358.327 288 376Z" fill="white"/>
<path fill-rule="evenodd" clip-rule="evenodd" d="M256 104C269.255 104 280 114.745 280 128V288C280 301.255 269.255 312 256 312C242.745 312 232 301.255 232 288V128C232 114.745 242.745 104 256 104Z" fill="white"/>
</svg>
